{
	"patcher" : 	{
		"fileversion" : 1,
		"appversion" : 		{
			"major" : 8,
			"minor" : 1,
			"revision" : 5,
			"architecture" : "x64",
			"modernui" : 1
		}
,
		"classnamespace" : "box",
		"rect" : [ 34.0, 79.0, 1134.0, 937.0 ],
		"bglocked" : 0,
		"openinpresentation" : 0,
		"default_fontsize" : 12.0,
		"default_fontface" : 0,
		"default_fontname" : "Arial",
		"gridonopen" : 1,
		"gridsize" : [ 15.0, 15.0 ],
		"gridsnaponopen" : 1,
		"objectsnaponopen" : 1,
		"statusbarvisible" : 2,
		"toolbarvisible" : 1,
		"lefttoolbarpinned" : 0,
		"toptoolbarpinned" : 0,
		"righttoolbarpinned" : 0,
		"bottomtoolbarpinned" : 0,
		"toolbars_unpinned_last_save" : 0,
		"tallnewobj" : 0,
		"boxanimatetime" : 200,
		"enablehscroll" : 1,
		"enablevscroll" : 1,
		"devicewidth" : 0.0,
		"description" : "",
		"digest" : "",
		"tags" : "",
		"style" : "",
		"subpatcher_template" : "",
		"assistshowspatchername" : 0,
		"boxes" : [ 			{
				"box" : 				{
					"id" : "obj-27",
					"maxclass" : "number",
					"numinlets" : 1,
					"numoutlets" : 2,
					"outlettype" : [ "", "bang" ],
					"parameter_enable" : 0,
					"patching_rect" : [ 598.0, 1494.0, 50.0, 22.0 ]
				}

			}
, 			{
				"box" : 				{
					"id" : "obj-25",
					"maxclass" : "newobj",
					"numinlets" : 2,
					"numoutlets" : 2,
					"outlettype" : [ "", "" ],
					"patching_rect" : [ 598.0, 1442.0, 37.0, 22.0 ],
					"text" : "zl.len"
				}

			}
, 			{
				"box" : 				{
					"id" : "obj-23",
					"linecount" : 4,
					"maxclass" : "message",
					"numinlets" : 2,
					"numoutlets" : 1,
					"outlettype" : [ "" ],
					"patching_rect" : [ 613.0, 1314.0, 386.0, 62.0 ],
					"text" : "0.951296 -1.766169 0.946246 -1.766169 0.897542 0.991796 -1.578162 0.982049 -1.578162 0.973845 0.963692 -1.160987 0.953674 -1.160987 0.917367 0.825311 -0.708405 0.74391 -0.708405 0.56922 0.953829 0.762444 0.66591 0.762444 0.619739"
				}

			}
, 			{
				"box" : 				{
					"domain" : [ 0.0, 22050.0 ],
					"fontface" : 0,
					"fontsize" : 8.998901,
					"id" : "obj-21",
					"linmarkers" : [ 0.0, 11025.0, 16537.5 ],
					"logamp" : 0,
					"logfreq" : 0,
					"logmarkers" : [ 0.0, 500.0, 5000.0 ],
					"maxclass" : "filtergraph~",
					"nfilters" : 5,
					"numinlets" : 8,
					"numoutlets" : 7,
					"outlettype" : [ "list", "float", "float", "float", "float", "list", "int" ],
					"parameter_enable" : 0,
					"patching_rect" : [ 68.74999737739563, 1291.0, 443.0, 119.0 ],
					"phasespect" : 1,
					"range" : [ 0.0, 2.0 ],
					"setfilter" : [ 4, 0, 1, 0, 0, 202.5, 1.0, 2.5, 0.0, 0.0, 0.0, 0.0, 0.0, 0.0, 3, 0, 1, 0, 0, 135.0, 1.0, 2.5, 0.0, 0.0, 0.0, 0.0, 0.0, 0.0, 2, 0, 1, 0, 0, 90.0, 1.0, 2.5, 0.0, 0.0, 0.0, 0.0, 0.0, 0.0, 1, 0, 1, 0, 0, 60.0, 1.0, 2.5, 0.0, 0.0, 0.0, 0.0, 0.0, 0.0, 0, 0, 0, 0, 0, 1000.0, 1.0, 1.0, 0.000099999997474, 22050.0, 0.000099999997474, 2.0, 0.5, 25.0 ],
					"varname" : "filtergraph~[1]"
				}

			}
, 			{
				"box" : 				{
					"id" : "obj-8",
					"maxclass" : "newobj",
					"numinlets" : 1,
					"numoutlets" : 3,
					"outlettype" : [ "bang", "bang", "bang" ],
					"patching_rect" : [ 58.0, 541.0, 42.0, 22.0 ],
					"text" : "t b b b"
				}

			}
, 			{
				"box" : 				{
					"domain" : [ 0.0, 22050.0 ],
					"fontface" : 0,
					"fontsize" : 8.998901,
					"id" : "obj-7",
					"linmarkers" : [ 0.0, 11025.0, 16537.5 ],
					"logamp" : 0,
					"logfreq" : 0,
					"logmarkers" : [ 0.0, 500.0, 5000.0 ],
					"maxclass" : "filtergraph~",
					"nfilters" : 5,
					"numinlets" : 8,
					"numoutlets" : 7,
					"outlettype" : [ "list", "float", "float", "float", "float", "list", "int" ],
					"parameter_enable" : 0,
					"patching_rect" : [ 68.74999737739563, 1166.0, 443.0, 119.0 ],
					"range" : [ 0.0, 2.0 ],
					"setfilter" : [ 4, 0, 1, 0, 0, 202.5, 1.0, 2.5, 0.0, 0.0, 0.0, 0.0, 0.0, 0.0, 3, 0, 1, 0, 0, 135.0, 1.0, 2.5, 0.0, 0.0, 0.0, 0.0, 0.0, 0.0, 2, 0, 1, 0, 0, 90.0, 1.0, 2.5, 0.0, 0.0, 0.0, 0.0, 0.0, 0.0, 1, 0, 1, 0, 0, 60.0, 1.0, 2.5, 0.0, 0.0, 0.0, 0.0, 0.0, 0.0, 0, 0, 0, 0, 0, 1000.0, 1.0, 1.0, 0.000099999997474, 22050.0, 0.000099999997474, 2.0, 0.5, 25.0 ],
					"varname" : "filtergraph~"
				}

			}
, 			{
				"box" : 				{
					"id" : "obj-5",
					"maxclass" : "newobj",
					"numinlets" : 1,
					"numoutlets" : 1,
					"outlettype" : [ "" ],
					"patching_rect" : [ 68.74999737739563, 1128.0, 101.0, 22.0 ],
					"text" : "prepend cascade"
				}

			}
, 			{
				"box" : 				{
					"id" : "obj-97",
					"maxclass" : "newobj",
					"numinlets" : 25,
					"numoutlets" : 1,
					"outlettype" : [ "" ],
					"patching_rect" : [ 68.74999737739563, 1095.833291530609131, 361.0, 22.0 ],
					"text" : "pak 0. 0. 0. 0. 0. 0. 0. 0. 0. 0. 0. 0. 0. 0. 0. 0. 0. 0. 0. 0. 0. 0. 0. 0. 0."
				}

			}
, 			{
				"box" : 				{
					"format" : 6,
					"id" : "obj-92",
					"maxclass" : "flonum",
					"numinlets" : 1,
					"numoutlets" : 2,
					"outlettype" : [ "", "bang" ],
					"parameter_enable" : 0,
					"patching_rect" : [ 1378.833290576934814, 904.166632175445557, 50.0, 22.0 ]
				}

			}
, 			{
				"box" : 				{
					"format" : 6,
					"id" : "obj-93",
					"maxclass" : "flonum",
					"numinlets" : 1,
					"numoutlets" : 2,
					"outlettype" : [ "", "bang" ],
					"parameter_enable" : 0,
					"patching_rect" : [ 1325.708292603492737, 904.166632175445557, 50.0, 22.0 ]
				}

			}
, 			{
				"box" : 				{
					"format" : 6,
					"id" : "obj-94",
					"maxclass" : "flonum",
					"numinlets" : 1,
					"numoutlets" : 2,
					"outlettype" : [ "", "bang" ],
					"parameter_enable" : 0,
					"patching_rect" : [ 1273.624961256980896, 904.166632175445557, 50.0, 22.0 ]
				}

			}
, 			{
				"box" : 				{
					"fontface" : 0,
					"id" : "obj-96",
					"linmarkers" : [ 0.0, 11025.0, 16537.5 ],
					"logmarkers" : [ 0.0, 100.0, 1000.0, 10000.0 ],
					"maxclass" : "filtergraph~",
					"nfilters" : 1,
					"numinlets" : 8,
					"numoutlets" : 7,
					"outlettype" : [ "list", "float", "float", "float", "float", "list", "int" ],
					"parameter_enable" : 0,
					"patching_rect" : [ 1106.958300948143005, 935.416654825210571, 256.0, 128.0 ],
					"setfilter" : [ 0, 5, 1, 0, 0, 14464.9267578125, 0.757163226604462, 2.159469127655029, 0.0, 0.0, 0.0, 0.0, 0.0, 0.0 ]
				}

			}
, 			{
				"box" : 				{
					"format" : 6,
					"id" : "obj-87",
					"maxclass" : "flonum",
					"numinlets" : 1,
					"numoutlets" : 2,
					"outlettype" : [ "", "bang" ],
					"parameter_enable" : 0,
					"patching_rect" : [ 1120.833290576934814, 904.166632175445557, 50.0, 22.0 ]
				}

			}
, 			{
				"box" : 				{
					"format" : 6,
					"id" : "obj-88",
					"maxclass" : "flonum",
					"numinlets" : 1,
					"numoutlets" : 2,
					"outlettype" : [ "", "bang" ],
					"parameter_enable" : 0,
					"patching_rect" : [ 1067.708292603492737, 904.166632175445557, 50.0, 22.0 ]
				}

			}
, 			{
				"box" : 				{
					"format" : 6,
					"id" : "obj-89",
					"maxclass" : "flonum",
					"numinlets" : 1,
					"numoutlets" : 2,
					"outlettype" : [ "", "bang" ],
					"parameter_enable" : 0,
					"patching_rect" : [ 1015.624961256980896, 904.166632175445557, 50.0, 22.0 ]
				}

			}
, 			{
				"box" : 				{
					"fontface" : 0,
					"id" : "obj-91",
					"linmarkers" : [ 0.0, 11025.0, 16537.5 ],
					"logmarkers" : [ 0.0, 100.0, 1000.0, 10000.0 ],
					"maxclass" : "filtergraph~",
					"nfilters" : 1,
					"numinlets" : 8,
					"numoutlets" : 7,
					"outlettype" : [ "list", "float", "float", "float", "float", "list", "int" ],
					"parameter_enable" : 0,
					"patching_rect" : [ 848.958300948143005, 935.416654825210571, 256.0, 128.0 ],
					"setfilter" : [ 0, 5, 1, 0, 0, 7737.5966796875, 0.188961818814278, 3.738725662231445, 0.0, 0.0, 0.0, 0.0, 0.0, 0.0 ]
				}

			}
, 			{
				"box" : 				{
					"format" : 6,
					"id" : "obj-82",
					"maxclass" : "flonum",
					"numinlets" : 1,
					"numoutlets" : 2,
					"outlettype" : [ "", "bang" ],
					"parameter_enable" : 0,
					"patching_rect" : [ 861.458300471305847, 904.166632175445557, 50.0, 22.0 ]
				}

			}
, 			{
				"box" : 				{
					"format" : 6,
					"id" : "obj-83",
					"maxclass" : "flonum",
					"numinlets" : 1,
					"numoutlets" : 2,
					"outlettype" : [ "", "bang" ],
					"parameter_enable" : 0,
					"patching_rect" : [ 808.33330249786377, 904.166632175445557, 50.0, 22.0 ]
				}

			}
, 			{
				"box" : 				{
					"format" : 6,
					"id" : "obj-84",
					"maxclass" : "flonum",
					"numinlets" : 1,
					"numoutlets" : 2,
					"outlettype" : [ "", "bang" ],
					"parameter_enable" : 0,
					"patching_rect" : [ 756.249971151351929, 904.166632175445557, 50.0, 22.0 ]
				}

			}
, 			{
				"box" : 				{
					"fontface" : 0,
					"id" : "obj-86",
					"linmarkers" : [ 0.0, 11025.0, 16537.5 ],
					"logmarkers" : [ 0.0, 100.0, 1000.0, 10000.0 ],
					"maxclass" : "filtergraph~",
					"nfilters" : 1,
					"numinlets" : 8,
					"numoutlets" : 7,
					"outlettype" : [ "list", "float", "float", "float", "float", "list", "int" ],
					"parameter_enable" : 0,
					"patching_rect" : [ 589.583310842514038, 935.416654825210571, 256.0, 128.0 ],
					"setfilter" : [ 0, 5, 1, 0, 0, 6459.9599609375, 0.121235437691212, 26.517366409301758, 0.0, 0.0, 0.0, 0.0, 0.0, 0.0 ]
				}

			}
, 			{
				"box" : 				{
					"format" : 6,
					"id" : "obj-77",
					"maxclass" : "flonum",
					"numinlets" : 1,
					"numoutlets" : 2,
					"outlettype" : [ "", "bang" ],
					"parameter_enable" : 0,
					"patching_rect" : [ 602.08331036567688, 904.166632175445557, 50.0, 22.0 ]
				}

			}
, 			{
				"box" : 				{
					"format" : 6,
					"id" : "obj-78",
					"maxclass" : "flonum",
					"numinlets" : 1,
					"numoutlets" : 2,
					"outlettype" : [ "", "bang" ],
					"parameter_enable" : 0,
					"patching_rect" : [ 548.958312392234802, 904.166632175445557, 50.0, 22.0 ]
				}

			}
, 			{
				"box" : 				{
					"format" : 6,
					"id" : "obj-79",
					"maxclass" : "flonum",
					"numinlets" : 1,
					"numoutlets" : 2,
					"outlettype" : [ "", "bang" ],
					"parameter_enable" : 0,
					"patching_rect" : [ 496.874981045722961, 904.166632175445557, 50.0, 22.0 ]
				}

			}
, 			{
				"box" : 				{
					"fontface" : 0,
					"id" : "obj-81",
					"linmarkers" : [ 0.0, 11025.0, 16537.5 ],
					"logmarkers" : [ 0.0, 100.0, 1000.0, 10000.0 ],
					"maxclass" : "filtergraph~",
					"nfilters" : 1,
					"numinlets" : 8,
					"numoutlets" : 7,
					"outlettype" : [ "list", "float", "float", "float", "float", "list", "int" ],
					"parameter_enable" : 0,
					"patching_rect" : [ 330.208320736885071, 935.416654825210571, 256.0, 128.0 ],
					"setfilter" : [ 0, 5, 1, 0, 0, 4521.97509765625, 0.372670263051987, 37.124336242675781, 0.0, 0.0, 0.0, 0.0, 0.0, 0.0 ]
				}

			}
, 			{
				"box" : 				{
					"format" : 6,
					"id" : "obj-74",
					"maxclass" : "flonum",
					"numinlets" : 1,
					"numoutlets" : 2,
					"outlettype" : [ "", "bang" ],
					"parameter_enable" : 0,
					"patching_rect" : [ 340.624987006187439, 904.166632175445557, 50.0, 22.0 ]
				}

			}
, 			{
				"box" : 				{
					"format" : 6,
					"id" : "obj-73",
					"maxclass" : "flonum",
					"numinlets" : 1,
					"numoutlets" : 2,
					"outlettype" : [ "", "bang" ],
					"parameter_enable" : 0,
					"patching_rect" : [ 287.499989032745361, 904.166632175445557, 50.0, 22.0 ]
				}

			}
, 			{
				"box" : 				{
					"format" : 6,
					"id" : "obj-72",
					"maxclass" : "flonum",
					"numinlets" : 1,
					"numoutlets" : 2,
					"outlettype" : [ "", "bang" ],
					"parameter_enable" : 0,
					"patching_rect" : [ 235.416657686233521, 904.166632175445557, 50.0, 22.0 ]
				}

			}
, 			{
				"box" : 				{
					"id" : "obj-70",
					"maxclass" : "newobj",
					"numinlets" : 1,
					"numoutlets" : 15,
					"outlettype" : [ "float", "float", "float", "float", "float", "float", "float", "float", "float", "float", "float", "float", "float", "float", "float" ],
					"patching_rect" : [ 323.749988794326782, 825.041636109352112, 166.0, 22.0 ],
					"text" : "unpack f f f f f f f f f f f f f f f"
				}

			}
, 			{
				"box" : 				{
					"id" : "obj-55",
					"maxclass" : "newobj",
					"numinlets" : 1,
					"numoutlets" : 2,
					"outlettype" : [ "", "FullPacket" ],
					"patching_rect" : [ 323.749988794326782, 794.416638612747192, 69.0, 22.0 ],
					"text" : "o.route /out"
				}

			}
, 			{
				"box" : 				{
					"fontface" : 0,
					"id" : "obj-54",
					"linecount" : 2,
					"maxclass" : "o.expr.codebox",
					"numinlets" : 1,
					"numoutlets" : 2,
					"outlettype" : [ "FullPacket", "FullPacket" ],
					"patching_rect" : [ 323.541656613349915, 720.0, 409.374990105628967, 44.0 ],
					"presentation_linecount" : 7,
					"text" : "/dbtoa=\"lambda(i, pow(2, i / 6))\",\n/out = interleave(/centroid_x, /dbtoa(/centroid_y), /q)"
				}

			}
, 			{
				"box" : 				{
					"fontface" : 0,
					"id" : "obj-50",
					"linmarkers" : [ 0.0, 11025.0, 16537.5 ],
					"logmarkers" : [ 0.0, 100.0, 1000.0, 10000.0 ],
					"maxclass" : "filtergraph~",
					"nfilters" : 1,
					"numinlets" : 8,
					"numoutlets" : 7,
					"outlettype" : [ "list", "float", "float", "float", "float", "list", "int" ],
					"parameter_enable" : 0,
					"patching_rect" : [ 68.74999737739563, 935.416654825210571, 256.0, 128.0 ],
					"setfilter" : [ 0, 5, 1, 0, 0, 2627.050048828125, 0.049283929169178, 15.250493049621582, 0.0, 0.0, 0.0, 0.0, 0.0, 0.0 ]
				}

			}
, 			{
				"box" : 				{
					"id" : "obj-49",
					"maxclass" : "newobj",
					"numinlets" : 2,
					"numoutlets" : 1,
					"outlettype" : [ "FullPacket" ],
					"patching_rect" : [ 323.541656613349915, 574.249974966049194, 48.0, 22.0 ],
					"text" : "o.union"
				}

			}
, 			{
				"box" : 				{
					"fontface" : 0,
					"id" : "obj-41",
					"linecount" : 3,
					"maxclass" : "o.display",
					"numinlets" : 1,
					"numoutlets" : 1,
					"outlettype" : [ "" ],
					"patching_rect" : [ 323.541656613349915, 633.666640281677246, 732.29164445400238, 59.0 ],
					"text" : "/centroid_x : [2627.05, 4521.98, 6459.96, 7737.6, 14464.9],\n/centroid_y : [-26.0564, -8.54417, -18.2647, -14.423, -2.40794],\n/q : [15.2505, 37.1243, 26.5174, 3.73873, 2.15947]"
				}

			}
, 			{
				"box" : 				{
					"id" : "obj-40",
					"maxclass" : "newobj",
					"numinlets" : 2,
					"numoutlets" : 2,
					"outlettype" : [ "FullPacket", "FullPacket" ],
					"patching_rect" : [ 323.541656613349915, 598.249974966049194, 58.0, 22.0 ],
					"text" : "o.change"
				}

			}
, 			{
				"box" : 				{
					"id" : "obj-38",
					"maxclass" : "button",
					"numinlets" : 1,
					"numoutlets" : 1,
					"outlettype" : [ "bang" ],
					"parameter_enable" : 0,
					"patching_rect" : [ 120.833328723907471, 599.999977111816406, 24.0, 24.0 ]
				}

			}
, 			{
				"box" : 				{
					"id" : "obj-35",
					"maxclass" : "newobj",
					"numinlets" : 2,
					"numoutlets" : 1,
					"outlettype" : [ "FullPacket" ],
					"patching_rect" : [ 169.874994397163391, 641.666642189025879, 35.0, 22.0 ],
					"text" : "o.var"
				}

			}
, 			{
				"box" : 				{
					"id" : "obj-34",
					"maxclass" : "newobj",
					"numinlets" : 2,
					"numoutlets" : 1,
					"outlettype" : [ "FullPacket" ],
					"patching_rect" : [ 323.541656613349915, 548.249976873397827, 48.0, 22.0 ],
					"text" : "o.union"
				}

			}
, 			{
				"box" : 				{
					"id" : "obj-31",
					"maxclass" : "newobj",
					"numinlets" : 1,
					"numoutlets" : 4,
					"outlettype" : [ "", "", "", "FullPacket" ],
					"patching_rect" : [ 323.541656613349915, 516.999978065490723, 187.0, 22.0 ],
					"text" : "o.select /centroid_x /centroid_y /q"
				}

			}
, 			{
				"box" : 				{
					"fontface" : 0,
					"id" : "obj-24",
					"linecount" : 2,
					"maxclass" : "o.expr.codebox",
					"numinlets" : 1,
					"numoutlets" : 2,
					"outlettype" : [ "FullPacket", "FullPacket" ],
					"patching_rect" : [ 54.0, 179.166659832000732, 443.749988794326782, 48.625001311302185 ],
					"text" : "/centroid_x = 22050 / pow(2,rev(aseq(1,10,.5))),\n/centroid_y = nfill(20,0)"
				}

			}
, 			{
				"box" : 				{
					"id" : "obj-6",
					"maxclass" : "newobj",
					"numinlets" : 2,
					"numoutlets" : 1,
					"outlettype" : [ "FullPacket" ],
					"patching_rect" : [ 54.0, 150.0, 48.0, 22.0 ],
					"text" : "o.union"
				}

			}
, 			{
				"box" : 				{
					"fontface" : 0,
					"fontsize" : 12.0,
					"id" : "obj-3",
					"linecount" : 16,
					"maxclass" : "o.expr.codebox",
					"numinlets" : 1,
					"numoutlets" : 2,
					"outlettype" : [ "FullPacket", "FullPacket" ],
					"patching_rect" : [ 54.0, 246.083335161209106, 1007.833333492279053, 242.0 ],
					"presentation_linecount" : 16,
					"text" : "/ind_c =aseq(0,length(/centroid_x)-1),\n/ind_p =aseq(0,length(/peakFreqs)-1),\n/dist=\"lambda([a1,a2,b1,b2],sqrt(pow(a1-b1,2)+pow(a2-b2,2)))\",\n/d=\"lambda([a, b],/dist(/peakFreqs[[a]], /rawAmps[[a]], /centroid_x[[b]], /centroid_y[[b]]))\",\n/cl_ind=\"lambda(i,sortidx(/d(i,/ind_c))[[0]])\",\n/variance=\"lambda(a, sqrt(sum(pow(a-avg(a), 2))/ (length(a)-1)))\",\n/nearest_centroid=map( /cl_ind, /ind_p),\n/varX=\"lambda(i, /variance(nth( /peakFreqs, nonzero(/nearest_centroid==i))))\",\n/bw_x=map(/varX, /ind_c),\n/func_avg_indx=\"lambda(i, avg( nth( /peakFreqs, nonzero(/nearest_centroid==i))))\",\n/centroid_x2=map(/func_avg_indx, /ind_c), \n/centroid_x=nth(/centroid_x2, nonzero(/centroid_x2<40000)),\n/func_avg_indy=\"lambda(i, avg( nth( /rawAmps, nonzero(/nearest_centroid==i))))\",\n/centroid_y2=map(/func_avg_indy, /ind_c),\n/centroid_y=-nth(/centroid_y2, nonzero(/centroid_y2<40000)),\n/q=/centroid_x / (2*/bw_x)"
				}

			}
, 			{
				"box" : 				{
					"fontface" : 0,
					"fontsize" : 12.0,
					"id" : "obj-2",
					"linecount" : 6,
					"maxclass" : "o.compose",
					"numinlets" : 2,
					"numoutlets" : 1,
					"outlettype" : [ "" ],
					"patching_rect" : [ 636.0, 33.0, 475.0, 94.0 ],
					"saved_bundle_data" : [ 35, 98, 117, 110, 100, 108, 101, 0, 0, 0, 0, 0, 0, 0, 0, 0, 0, 0, 1, 64, 47, 114, 97, 119, 65, 109, 112, 115, 0, 0, 0, 0, 44, 100, 100, 100, 100, 100, 100, 100, 100, 100, 100, 100, 100, 100, 100, 100, 100, 100, 100, 100, 100, 100, 100, 100, 100, 100, 100, 100, 100, 100, 100, 100, 100, 100, 100, 0, 64, 58, 17, 38, -23, 120, -44, -2, 64, 58, 13, -13, -74, 69, -95, -53, 64, 58, 12, 60, -98, -20, -65, -79, 64, 50, 103, 82, 84, 96, -86, 101, 64, 50, 32, 52, 109, -59, -42, 57, 64, 50, 8, 81, -21, -123, 30, -72, 64, 48, 102, -3, 33, -1, 46, 73, 64, 48, 102, -102, -44, 44, 60, -97, 64, 48, 101, -75, 115, -22, -77, 104, 64, 48, 68, -68, 106, 126, -7, -37, 64, 47, -76, -121, -4, -71, 35, -93, 64, 43, -79, 104, 114, -80, 32, -59, 64, 39, -115, 40, -116, -25, 3, -80, 64, 38, -57, -82, 20, 122, -31, 72, 64, 33, 29, 57, -106, -6, -126, -24, 64, 33, 16, 1, 79, -117, 88, -114, 64, 32, -117, 110, -42, 119, 112, 122, 63, -19, -31, 117, -47, 61, 116, -42, 63, -23, -36, -56, 87, -13, 6, 28, 63, -24, -14, 73, 94, 23, -29, 76, 63, -27, 19, -45, 27, -101, 102, -7, 63, -48, -49, -82, -1, 92, 108, 18, 63, -48, -55, 112, -9, -71, -32, 97, 63, -58, -34, 93, 24, 9, 11, 65, -65, -28, 50, -39, 5, -64, 51, 97, -65, -10, -45, -51, -35, 110, 4, -64, -64, 4, -125, 97, 19, 64, 78, -91, -64, 6, 102, 18, -125, -112, 66, -39, -64, 6, -30, -63, 42, -40, 26, -33, -64, 11, 104, 77, -4, -29, 21, 14, -64, 13, 40, -95, -33, -71, 56, -101, -64, 13, 75, 25, -92, 21, -12, 94, -64, 42, 79, 65, -14, 18, -41, 115, -64, 42, -107, -10, -3, 33, -1, 46 ],
					"saved_bundle_length" : 340,
					"text" : "/rawAmps : [26.067, 26.0545, 26.0478, 18.4036, 18.1258, 18.0325, 16.4023, 16.4008, 16.3973, 16.2685, 15.8526, 13.8465, 11.7757, 11.39, 8.55708, 8.53126, 8.27233, 0.933772, 0.808201, 0.779576, 0.65867, 0.262676, 0.262295, 0.178661, -0.631207, -1.42671, -2.56415, -2.79984, -2.86072, -3.42593, -3.64484, -3.66167, -13.1548, -13.2929]"
				}

			}
, 			{
				"box" : 				{
					"fontface" : 0,
					"fontsize" : 12.0,
					"id" : "obj-1",
					"linecount" : 6,
					"maxclass" : "o.compose",
					"numinlets" : 2,
					"numoutlets" : 1,
					"outlettype" : [ "" ],
					"patching_rect" : [ 54.0, 33.0, 485.0, 94.0 ],
					"saved_bundle_data" : [ 35, 98, 117, 110, 100, 108, 101, 0, 0, 0, 0, 0, 0, 0, 0, 0, 0, 0, 1, 44, 47, 112, 101, 97, 107, 70, 114, 101, 113, 115, 0, 0, 44, 100, 100, 100, 100, 100, 100, 100, 100, 100, 100, 100, 100, 100, 100, 100, 100, 105, 100, 100, 100, 105, 100, 100, 100, 105, 100, 105, 100, 100, 100, 100, 105, 100, 100, 0, 64, -93, -39, -41, 10, 61, 112, -92, 64, -91, 50, 92, 40, -11, -62, -113, 64, -92, -122, 25, -103, -103, -103, -102, 64, -72, -27, -44, 122, -31, 71, -82, 64, -71, -110, 23, 10, 61, 112, -92, 64, -70, 19, 74, 61, 112, -93, -41, 64, -62, -63, -25, -82, 20, 122, -31, 64, -62, -106, -41, 10, 61, 112, -92, 64, -62, 107, -59, 30, -72, 81, -20, 64, -61, 2, -127, 71, -82, 20, 123, 64, -61, -39, -39, -103, -103, -103, -102, 64, -63, 19, 61, 112, -93, -41, 10, 64, -58, 74, 76, -52, -52, -52, -51, 64, -66, 115, 5, 30, -72, 81, -20, 64, -79, -43, 10, 61, 112, -93, -41, 64, -79, 126, -24, -11, -62, -113, 92, 0, 0, 73, 89, 64, -54, 62, 89, -103, -103, -103, -102, 64, -54, 19, 76, -52, -52, -52, -51, 64, -53, 0, 38, 102, 102, 102, 102, 0, 0, 53, 41, 64, -52, 2, -116, -52, -52, -52, -51, 64, -52, 45, -103, -103, -103, -103, -102, 64, -52, 110, 51, 51, 51, 51, 51, 0, 0, 58, 96, 64, -51, -58, -64, 0, 0, 0, 0, 0, 0, 65, -14, 64, -48, 49, 38, 102, 102, 102, 102, 64, -48, 70, -84, -52, -52, -52, -51, 64, -49, 52, -52, -52, -52, -52, -51, 64, -49, -31, 25, -103, -103, -103, -102, 0, 0, 63, 65, 64, -44, -122, 25, -103, -103, -103, -102, 64, -44, -90, 102, 102, 102, 102, 102 ],
					"saved_bundle_length" : 320,
					"text" : "/peakFreqs : [2540.92, 2713.18, 2627.05, 6373.83, 6546.09, 6675.29, 9603.81, 9517.68, 9431.54, 9733.01, 10163.7, 8742.48, 11412.6, 7795.02, 4565.04, 4478.91, 18777, 13436.7, 13350.6, 13824.3, 13609, 14341.1, 14427.2, 14556.4, 14944, 15245.5, 16882, 16580.6, 16666.7, 15977.6, 16322.2, 16193, 21016.4, 21145.6]"
				}

			}
 ],
		"lines" : [ 			{
				"patchline" : 				{
					"destination" : [ "obj-6", 0 ],
					"source" : [ "obj-1", 0 ]
				}

			}
, 			{
				"patchline" : 				{
					"destination" : [ "obj-6", 1 ],
					"source" : [ "obj-2", 0 ]
				}

			}
, 			{
				"patchline" : 				{
					"destination" : [ "obj-23", 1 ],
					"order" : 0,
					"source" : [ "obj-21", 0 ]
				}

			}
, 			{
				"patchline" : 				{
					"destination" : [ "obj-25", 0 ],
					"order" : 1,
					"source" : [ "obj-21", 0 ]
				}

			}
, 			{
				"patchline" : 				{
					"destination" : [ "obj-3", 0 ],
					"source" : [ "obj-24", 0 ]
				}

			}
, 			{
				"patchline" : 				{
					"destination" : [ "obj-27", 0 ],
					"source" : [ "obj-25", 0 ]
				}

			}
, 			{
				"patchline" : 				{
					"destination" : [ "obj-31", 0 ],
					"order" : 0,
					"source" : [ "obj-3", 0 ]
				}

			}
, 			{
				"patchline" : 				{
					"destination" : [ "obj-35", 1 ],
					"order" : 1,
					"source" : [ "obj-3", 0 ]
				}

			}
, 			{
				"patchline" : 				{
					"destination" : [ "obj-34", 1 ],
					"source" : [ "obj-31", 1 ]
				}

			}
, 			{
				"patchline" : 				{
					"destination" : [ "obj-34", 0 ],
					"source" : [ "obj-31", 0 ]
				}

			}
, 			{
				"patchline" : 				{
					"destination" : [ "obj-49", 1 ],
					"source" : [ "obj-31", 2 ]
				}

			}
, 			{
				"patchline" : 				{
					"destination" : [ "obj-49", 0 ],
					"source" : [ "obj-34", 0 ]
				}

			}
, 			{
				"patchline" : 				{
					"destination" : [ "obj-3", 0 ],
					"source" : [ "obj-35", 0 ]
				}

			}
, 			{
				"patchline" : 				{
					"destination" : [ "obj-35", 0 ],
					"source" : [ "obj-38", 0 ]
				}

			}
, 			{
				"patchline" : 				{
					"destination" : [ "obj-41", 0 ],
					"source" : [ "obj-40", 0 ]
				}

			}
, 			{
				"patchline" : 				{
					"destination" : [ "obj-54", 0 ],
					"source" : [ "obj-41", 0 ]
				}

			}
, 			{
				"patchline" : 				{
					"destination" : [ "obj-40", 0 ],
					"source" : [ "obj-49", 0 ]
				}

			}
, 			{
				"patchline" : 				{
					"destination" : [ "obj-21", 0 ],
					"order" : 0,
					"source" : [ "obj-5", 0 ]
				}

			}
, 			{
				"patchline" : 				{
					"destination" : [ "obj-7", 0 ],
					"order" : 1,
					"source" : [ "obj-5", 0 ]
				}

			}
, 			{
				"patchline" : 				{
					"destination" : [ "obj-97", 0 ],
					"source" : [ "obj-50", 0 ]
				}

			}
, 			{
				"patchline" : 				{
					"destination" : [ "obj-55", 0 ],
					"source" : [ "obj-54", 0 ]
				}

			}
, 			{
				"patchline" : 				{
					"destination" : [ "obj-70", 0 ],
					"source" : [ "obj-55", 0 ]
				}

			}
, 			{
				"patchline" : 				{
					"destination" : [ "obj-24", 0 ],
					"order" : 1,
					"source" : [ "obj-6", 0 ]
				}

			}
, 			{
				"patchline" : 				{
					"destination" : [ "obj-8", 0 ],
					"order" : 0,
					"source" : [ "obj-6", 0 ]
				}

			}
, 			{
				"patchline" : 				{
					"destination" : [ "obj-72", 0 ],
					"source" : [ "obj-70", 0 ]
				}

			}
, 			{
				"patchline" : 				{
					"destination" : [ "obj-73", 0 ],
					"source" : [ "obj-70", 1 ]
				}

			}
, 			{
				"patchline" : 				{
					"destination" : [ "obj-74", 0 ],
					"source" : [ "obj-70", 2 ]
				}

			}
, 			{
				"patchline" : 				{
					"destination" : [ "obj-77", 0 ],
					"source" : [ "obj-70", 5 ]
				}

			}
, 			{
				"patchline" : 				{
					"destination" : [ "obj-78", 0 ],
					"source" : [ "obj-70", 4 ]
				}

			}
, 			{
				"patchline" : 				{
					"destination" : [ "obj-79", 0 ],
					"source" : [ "obj-70", 3 ]
				}

			}
, 			{
				"patchline" : 				{
					"destination" : [ "obj-82", 0 ],
					"source" : [ "obj-70", 8 ]
				}

			}
, 			{
				"patchline" : 				{
					"destination" : [ "obj-83", 0 ],
					"source" : [ "obj-70", 7 ]
				}

			}
, 			{
				"patchline" : 				{
					"destination" : [ "obj-84", 0 ],
					"source" : [ "obj-70", 6 ]
				}

			}
, 			{
				"patchline" : 				{
					"destination" : [ "obj-87", 0 ],
					"source" : [ "obj-70", 11 ]
				}

			}
, 			{
				"patchline" : 				{
					"destination" : [ "obj-88", 0 ],
					"source" : [ "obj-70", 10 ]
				}

			}
, 			{
				"patchline" : 				{
					"destination" : [ "obj-89", 0 ],
					"source" : [ "obj-70", 9 ]
				}

			}
, 			{
				"patchline" : 				{
					"destination" : [ "obj-92", 0 ],
					"source" : [ "obj-70", 14 ]
				}

			}
, 			{
				"patchline" : 				{
					"destination" : [ "obj-93", 0 ],
					"source" : [ "obj-70", 13 ]
				}

			}
, 			{
				"patchline" : 				{
					"destination" : [ "obj-94", 0 ],
					"source" : [ "obj-70", 12 ]
				}

			}
, 			{
				"patchline" : 				{
					"destination" : [ "obj-50", 5 ],
					"source" : [ "obj-72", 0 ]
				}

			}
, 			{
				"patchline" : 				{
					"destination" : [ "obj-50", 6 ],
					"source" : [ "obj-73", 0 ]
				}

			}
, 			{
				"patchline" : 				{
					"destination" : [ "obj-50", 7 ],
					"source" : [ "obj-74", 0 ]
				}

			}
, 			{
				"patchline" : 				{
					"destination" : [ "obj-81", 7 ],
					"source" : [ "obj-77", 0 ]
				}

			}
, 			{
				"patchline" : 				{
					"destination" : [ "obj-81", 6 ],
					"source" : [ "obj-78", 0 ]
				}

			}
, 			{
				"patchline" : 				{
					"destination" : [ "obj-81", 5 ],
					"source" : [ "obj-79", 0 ]
				}

			}
, 			{
				"patchline" : 				{
					"destination" : [ "obj-38", 0 ],
					"source" : [ "obj-8", 2 ]
				}

			}
, 			{
				"patchline" : 				{
					"destination" : [ "obj-38", 0 ],
					"source" : [ "obj-8", 1 ]
				}

			}
, 			{
				"patchline" : 				{
					"destination" : [ "obj-38", 0 ],
					"source" : [ "obj-8", 0 ]
				}

			}
, 			{
				"patchline" : 				{
					"destination" : [ "obj-97", 5 ],
					"source" : [ "obj-81", 0 ]
				}

			}
, 			{
				"patchline" : 				{
					"destination" : [ "obj-86", 7 ],
					"source" : [ "obj-82", 0 ]
				}

			}
, 			{
				"patchline" : 				{
					"destination" : [ "obj-86", 6 ],
					"source" : [ "obj-83", 0 ]
				}

			}
, 			{
				"patchline" : 				{
					"destination" : [ "obj-86", 5 ],
					"source" : [ "obj-84", 0 ]
				}

			}
, 			{
				"patchline" : 				{
					"destination" : [ "obj-97", 10 ],
					"source" : [ "obj-86", 0 ]
				}

			}
, 			{
				"patchline" : 				{
					"destination" : [ "obj-91", 7 ],
					"source" : [ "obj-87", 0 ]
				}

			}
, 			{
				"patchline" : 				{
					"destination" : [ "obj-91", 6 ],
					"source" : [ "obj-88", 0 ]
				}

			}
, 			{
				"patchline" : 				{
					"destination" : [ "obj-91", 5 ],
					"source" : [ "obj-89", 0 ]
				}

			}
, 			{
				"patchline" : 				{
					"destination" : [ "obj-97", 15 ],
					"source" : [ "obj-91", 0 ]
				}

			}
, 			{
				"patchline" : 				{
					"destination" : [ "obj-96", 7 ],
					"source" : [ "obj-92", 0 ]
				}

			}
, 			{
				"patchline" : 				{
					"destination" : [ "obj-96", 6 ],
					"source" : [ "obj-93", 0 ]
				}

			}
, 			{
				"patchline" : 				{
					"destination" : [ "obj-96", 5 ],
					"source" : [ "obj-94", 0 ]
				}

			}
, 			{
				"patchline" : 				{
					"destination" : [ "obj-97", 20 ],
					"source" : [ "obj-96", 0 ]
				}

			}
, 			{
				"patchline" : 				{
					"destination" : [ "obj-5", 0 ],
					"source" : [ "obj-97", 0 ]
				}

			}
 ],
		"parameters" : 		{
			"parameterbanks" : 			{

			}
,
			"inherited_shortname" : 1
		}
,
		"dependency_cache" : [ 			{
				"name" : "o.compose.mxo",
				"type" : "iLaX"
			}
, 			{
				"name" : "o.expr.codebox.mxo",
				"type" : "iLaX"
			}
, 			{
				"name" : "o.union.mxo",
				"type" : "iLaX"
			}
, 			{
				"name" : "o.select.mxo",
				"type" : "iLaX"
			}
, 			{
				"name" : "o.var.mxo",
				"type" : "iLaX"
			}
, 			{
				"name" : "o.change.mxo",
				"type" : "iLaX"
			}
, 			{
				"name" : "o.display.mxo",
				"type" : "iLaX"
			}
, 			{
				"name" : "o.route.mxo",
				"type" : "iLaX"
			}
 ],
		"autosave" : 0
	}

}
